<?xml version="1.0" standalone="no"?>
<svg xmlns:xlink="http://www.w3.org/1999/xlink" id="wave" style="transform:rotate(0deg); transition: 0.3s" viewBox="0 0 1440 490" version="1.1" xmlns="http://www.w3.org/2000/svg"><defs><linearGradient id="sw-gradient-0" x1="0" x2="0" y1="1" y2="0"><stop stop-color="rgba(62, 127.103, 243, 1)" offset="0%"/><stop stop-color="rgba(11, 32.631, 255, 1)" offset="100%"/></linearGradient></defs><path style="transform:translate(0, 0px); opacity:1" fill="url(#sw-gradient-0)" d="M0,0L26.7,32.7C53.3,65,107,131,160,179.7C213.3,229,267,261,320,245C373.3,229,427,163,480,138.8C533.3,114,587,131,640,147C693.3,163,747,180,800,204.2C853.3,229,907,261,960,236.8C1013.3,212,1067,131,1120,155.2C1173.3,180,1227,310,1280,359.3C1333.3,408,1387,376,1440,302.2C1493.3,229,1547,114,1600,130.7C1653.3,147,1707,294,1760,302.2C1813.3,310,1867,180,1920,163.3C1973.3,147,2027,245,2080,269.5C2133.3,294,2187,245,2240,220.5C2293.3,196,2347,196,2400,179.7C2453.3,163,2507,131,2560,122.5C2613.3,114,2667,131,2720,114.3C2773.3,98,2827,49,2880,40.8C2933.3,33,2987,65,3040,122.5C3093.3,180,3147,261,3200,261.3C3253.3,261,3307,180,3360,163.3C3413.3,147,3467,196,3520,212.3C3573.3,229,3627,212,3680,220.5C3733.3,229,3787,261,3813,277.7L3840,294L3840,490L3813.3,490C3786.7,490,3733,490,3680,490C3626.7,490,3573,490,3520,490C3466.7,490,3413,490,3360,490C3306.7,490,3253,490,3200,490C3146.7,490,3093,490,3040,490C2986.7,490,2933,490,2880,490C2826.7,490,2773,490,2720,490C2666.7,490,2613,490,2560,490C2506.7,490,2453,490,2400,490C2346.7,490,2293,490,2240,490C2186.7,490,2133,490,2080,490C2026.7,490,1973,490,1920,490C1866.7,490,1813,490,1760,490C1706.7,490,1653,490,1600,490C1546.7,490,1493,490,1440,490C1386.7,490,1333,490,1280,490C1226.7,490,1173,490,1120,490C1066.7,490,1013,490,960,490C906.7,490,853,490,800,490C746.7,490,693,490,640,490C586.7,490,533,490,480,490C426.7,490,373,490,320,490C266.7,490,213,490,160,490C106.7,490,53,490,27,490L0,490Z"/></svg>